<svg width="26" height="26" xmlns="http://www.w3.org/2000/svg" xmlns:xlink="http://www.w3.org/1999/xlink" xmlns:svgjs="http://svgjs.com/svgjs" fill="#dfc5c5"><svg xmlns="http://www.w3.org/2000/svg" width="26" height="26" viewBox="0.5 0 25 25"><path paint-order="stroke fill markers" fill-rule="evenodd" d="M17.827 17.447c.905-.082 1.607-.923 1.562-1.927-.049-1.004-.829-1.81-1.78-1.81h-.063c-.983.034-1.748.905-1.717 1.943.031.526.235.955.515 1.266-1.092 2.24-2.73 3.885-5.213 5.268-1.67.92-3.434 1.267-5.15 1.02-1.436-.213-2.56-.89-3.247-1.975-1.029-1.647-1.123-3.423-.265-5.2.626-1.284 1.561-2.222 2.186-2.683a11.407 11.407 0 0 1-.437-1.694C-.404 15.145.066 19.916 1.47 22.17c1.046 1.646 3.185 2.698 5.526 2.698.624 0 1.28-.048 1.92-.213 4.058-.823 7.133-3.39 8.896-7.175l.015-.034zm5.571-4.115c-2.418-2.996-5.977-4.641-10.036-4.641h-.531c-.264-.609-.872-.987-1.56-.987h-.047c-.982 0-1.748.89-1.715 1.925.03.987.827 1.81 1.779 1.81h.077a1.769 1.769 0 0 0 1.56-1.152h.579c2.405 0 4.682.74 6.759 2.188 1.59 1.103 2.731 2.55 3.37 4.28.561 1.415.531 2.798-.046 3.95-.89 1.81-2.389 2.766-4.37 2.766-1.25 0-2.466-.412-3.091-.708-.374.328-1 .872-1.452 1.201 1.373.657 2.762 1.036 4.104 1.036 3.044 0 5.306-1.81 6.165-3.555.936-1.975.859-5.299-1.53-8.146l-.015.033zM7.261 18.038c.03.987.825 1.81 1.779 1.81h.062c1-.033 1.764-.904 1.717-1.942 0-.988-.811-1.81-1.764-1.81h-.063c-.063 0-.155 0-.235.033-1.294-2.305-1.841-4.774-1.637-7.438.124-2.008.749-3.754 1.872-5.201.936-1.235 2.7-1.845 3.902-1.876 3.371-.067 4.777 4.361 4.885 6.122l1.56.493C18.98 2.832 15.799 0 12.755 0 9.897 0 7.26 2.189 6.198 5.399c-1.451 4.28-.499 8.393 1.28 11.685-.155.215-.249.592-.217.954z"/></svg></svg>