<?xml version="1.0" encoding="iso-8859-1"?>
<!-- Generator: Adobe Illustrator 16.0.0, SVG Export Plug-In . SVG Version: 6.00 Build 0)  -->
<!DOCTYPE svg PUBLIC "-//W3C//DTD SVG 1.1//EN" "http://www.w3.org/Graphics/SVG/1.1/DTD/svg11.dtd">
<svg version="1.1" id="Capa_1" xmlns="http://www.w3.org/2000/svg" xmlns:xlink="http://www.w3.org/1999/xlink" x="0px" y="0px"
	 width="31.533px" height="31.534px" viewBox="0 0 31.533 31.534" style="enable-background:new 0 0 31.533 31.534;"
	 xml:space="preserve">
<g>
	<path d="M25.916,21.98c-0.684,0.445-1.395,0.828-2.12,1.154c-1.382,4.832-5.845,7.639-5.845,7.639
		c1.861-2.223,1.357-4.479,0.271-6.278c-2.849,0.151-5.55-0.543-7.552-2.043c0.07-0.047,0.143-0.088,0.213-0.138
		c0.98,0.14,1.993,0.216,3.031,0.216c8.515,0,15.416-4.938,15.416-11.03c0-1.832-0.635-3.555-1.737-5.073
		c0.793,0.465,1.508,1.03,2.104,1.711C33.217,12.148,31.523,18.345,25.916,21.98z M0.207,22.941c0,0,5.816,0.074,10.537-3.233
		c0.852,0.121,1.729,0.188,2.631,0.188c7.387,0,13.375-4.283,13.375-9.567c0-5.285-5.988-9.568-13.375-9.568S0,5.042,0,10.328
		c0,3.034,1.98,5.733,5.062,7.487C4.649,19.918,3.409,22.086,0.207,22.941z"/>
</g>
<g>
</g>
<g>
</g>
<g>
</g>
<g>
</g>
<g>
</g>
<g>
</g>
<g>
</g>
<g>
</g>
<g>
</g>
<g>
</g>
<g>
</g>
<g>
</g>
<g>
</g>
<g>
</g>
<g>
</g>
</svg>
