<svg xmlns="http://www.w3.org/2000/svg" width="25" height="25" viewBox="0 0 25 25">
  <path id="Icon_awesome-comments" data-name="Icon awesome-comments" d="M18.056,11.179A8.977,8.977,0,0,0,9.028,2.25,8.977,8.977,0,0,0,0,11.179a8.805,8.805,0,0,0,1.649,5.134A13.186,13.186,0,0,1,.1,19.354a.542.542,0,0,0-.065.485.349.349,0,0,0,.317.268,6.454,6.454,0,0,0,3.85-1.4,9.067,9.067,0,0,0,4.831,1.4A8.977,8.977,0,0,0,18.056,11.179Zm5.3,12.277A8.792,8.792,0,0,0,25,18.321a8.936,8.936,0,0,0-5.612-8.265,10.631,10.631,0,0,1,.056,1.122A10.581,10.581,0,0,1,9.028,21.893a10.161,10.161,0,0,1-1.376-.106A9.066,9.066,0,0,0,20.8,25.855a6.454,6.454,0,0,0,3.85,1.4.352.352,0,0,0,.317-.268A.547.547,0,0,0,24.9,26.5,13.043,13.043,0,0,1,23.351,23.455Z" transform="translate(0 -2.25)" fill="#e8d0d0"/>
</svg>
