<svg xmlns="http://www.w3.org/2000/svg" width="25" height="25" viewBox="0 0 25 25">
  <path id="Icon_simple-redux" data-name="Icon simple-redux" d="M17.328,18.378a1.8,1.8,0,0,0,1.562-1.927,1.845,1.845,0,0,0-1.779-1.81h-.064a1.84,1.84,0,0,0-1.717,1.943,2.059,2.059,0,0,0,.515,1.267,11.793,11.793,0,0,1-5.213,5.267,8.171,8.171,0,0,1-5.15,1.02,4.452,4.452,0,0,1-3.246-1.975,5.134,5.134,0,0,1-.266-5.2A7.651,7.651,0,0,1,4.156,14.28a11.413,11.413,0,0,1-.438-1.694C-.9,16.076-.433,20.848.971,23.1A6.525,6.525,0,0,0,6.5,25.8a7.705,7.705,0,0,0,1.92-.213,12.324,12.324,0,0,0,8.9-7.175l.015-.034ZM22.9,14.264A12.6,12.6,0,0,0,12.863,9.623h-.531a1.671,1.671,0,0,0-1.559-.988h-.047a1.8,1.8,0,0,0-1.716,1.926,1.845,1.845,0,0,0,1.779,1.81h.077a1.768,1.768,0,0,0,1.561-1.152H13a11.652,11.652,0,0,1,6.759,2.188,8.931,8.931,0,0,1,3.371,4.28,4.768,4.768,0,0,1-.047,3.951,4.615,4.615,0,0,1-4.37,2.765,7.8,7.8,0,0,1-3.091-.707c-.374.327-1,.871-1.452,1.2a9.6,9.6,0,0,0,4.1,1.036,6.908,6.908,0,0,0,6.165-3.555,7.844,7.844,0,0,0-1.53-8.146ZM6.761,18.969A1.843,1.843,0,0,0,8.54,20.78H8.6a1.881,1.881,0,0,0-.047-3.751H8.492a.639.639,0,0,0-.234.032A12.833,12.833,0,0,1,6.62,9.623a9.222,9.222,0,0,1,1.872-5.2,5.425,5.425,0,0,1,3.9-1.876c3.371-.067,4.776,4.362,4.885,6.123l1.561.493c-.359-5.4-3.542-8.23-6.586-8.23C9.4.931,6.761,3.121,5.7,6.33a14.481,14.481,0,0,0,1.28,11.685,1.518,1.518,0,0,0-.218.953Z" transform="translate(0 -0.932)" fill="#dfc5c5"/>
</svg>
