<svg xmlns="http://www.w3.org/2000/svg" width="23" height="23" viewBox="0 0 23 23">
  <path id="Icon_feather-phone-call" data-name="Icon feather-phone-call" d="M17.414,5.9a5.5,5.5,0,0,1,4.349,4.341M17.414,1.5a9.9,9.9,0,0,1,8.754,8.726M25.067,19v3.3a2.2,2.2,0,0,1-2.4,2.2,21.818,21.818,0,0,1-9.5-3.374,21.451,21.451,0,0,1-6.607-6.594,21.722,21.722,0,0,1-3.38-9.528A2.2,2.2,0,0,1,5.368,2.6h3.3a2.2,2.2,0,0,1,2.2,1.89,14.089,14.089,0,0,0,.771,3.088,2.195,2.195,0,0,1-.5,2.319l-1.4,1.4a17.6,17.6,0,0,0,6.607,6.594l1.4-1.4A2.205,2.205,0,0,1,20.079,16a14.16,14.16,0,0,0,3.094.769A2.2,2.2,0,0,1,25.067,19Z" transform="translate(-3.168 -1.5)" fill="#e2cbcb"/>
</svg>
