<svg xmlns="http://www.w3.org/2000/svg" width="25" height="25" viewBox="0 0 25 25">
  <path id="Icon_metro-warning" data-name="Icon metro-warning" d="M15.071,4.193l10.476,20.88H4.595L15.071,4.193Zm0-2.265a1.807,1.807,0,0,0-1.486,1.09L2.914,24.285c-.818,1.453-.122,2.643,1.546,2.643H25.682c1.667,0,2.363-1.189,1.545-2.643h0L16.557,3.018A1.807,1.807,0,0,0,15.071,1.928Zm1.562,20.313a1.563,1.563,0,1,1-1.562-1.562A1.563,1.563,0,0,1,16.633,22.241Zm-1.562-3.125a1.563,1.563,0,0,1-1.563-1.562V12.866a1.563,1.563,0,0,1,3.125,0v4.688A1.563,1.563,0,0,1,15.071,19.116Z" transform="translate(-2.571 -1.928)" fill="#e6d1d1"/>
</svg>
