<?xml version="1.0" encoding="iso-8859-1"?>
<!-- Generator: Adobe Illustrator 19.0.0, SVG Export Plug-In . SVG Version: 6.00 Build 0)  -->
<svg fill ='white' version="1.1" id="Layer_1" xmlns="http://www.w3.org/2000/svg" xmlns:xlink="http://www.w3.org/1999/xlink" x="0px" y="0px"
	 viewBox="0 0 508 508" style="enable-background:new 0 0 508 508;" xml:space="preserve">
<g>
	<g>
		<path d="M437.4,197.6H307.6c-7.8,0-14.2,6.3-14.2,14.1v141.1c0,7.8,6.3,14.1,14.1,14.1h129.9c7.8,0,14.1-6.3,14.1-14.1V211.7
			C451.5,203.9,445.2,197.6,437.4,197.6z M423.4,338.7H321.7V225.8h101.7V338.7z"/>
	</g>
</g>
<g>
	<g>
		<path d="M360.7,409.3H70.6c-7.8,0-14.1,6.3-14.1,14.1c-0.1,7.7,6.3,14.1,14.1,14.1h290.1c7.8,0,14.1-6.3,14.1-14.1
			C374.8,415.6,368.5,409.3,360.7,409.3z"/>
	</g>
</g>
<g>
	<g>
		<path d="M251.2,338.7H70.6c-7.8,0-14.1,6.3-14.1,14.1c-0.1,7.8,6.3,14.1,14.1,14.1h180.6c7.8,0,14.1-6.3,14.1-14.1
			S259,338.7,251.2,338.7z"/>
	</g>
</g>
<g>
	<g>
		<path d="M251.2,268.1H70.6c-7.8,0-14.1,6.3-14.1,14.1c-0.1,7.8,6.3,14.1,14.1,14.1h180.6c7.8,0,14.1-6.3,14.1-14.1
			C265.3,274.4,259,268.1,251.2,268.1z"/>
	</g>
</g>
<g>
	<g>
		<path d="M251.2,197.6H70.6c-7.8,0-14.1,6.3-14.1,14.1c-0.1,7.8,6.3,14.1,14.1,14.1h180.6c7.8,0,14.1-6.3,14.1-14.1
			C265.3,203.9,259,197.6,251.2,197.6z"/>
	</g>
</g>
<g>
	<g>
		<path d="M493.9,0H14.1C6.3,0,0,6.3,0,14.1v479.8c0,7.8,6.3,14.1,14.1,14.1h403c3.7,0,7.3-1.5,10-4.1l76.8-76.8
			c2.6-2.6,4.1-6.2,4.1-10v-403C508,6.3,501.7,0,493.9,0z M431.2,459.8v-28.6h28.6L431.2,459.8z M479.8,403L479.8,403h-62.7
			c-7.8,0-14.1,6.3-14.1,14.1v62.7H28.2V28.2h451.6V403z"/>
	</g>
</g>
<g>
	<g>
		<path d="M383.4,108.6c-5.8,0-10.6-4.7-10.6-10.6c0-5.8,4.7-10.6,10.6-10.6c2.9,0,5.7,1.2,7.7,3.3c2.7,2.8,7.1,3,10,0.3
			c2.8-2.7,3-7.1,0.3-10c-4.6-4.9-11.2-7.8-18-7.8c-13.6,0-24.7,11.1-24.7,24.7c0,13.6,11.1,24.7,24.7,24.7
			c5.8,0,10.6,4.7,10.6,10.6c0,5.8-4.7,10.6-10.6,10.6c-2.9,0-5.7-1.2-7.7-3.3c-2.7-2.8-7.1-3-10-0.3c-2.8,2.7-3,7.1-0.3,10
			c4.6,4.9,11.2,7.8,18,7.8c13.6,0,24.7-11.1,24.7-24.7S397,108.6,383.4,108.6z"/>
	</g>
</g>
<g>
	<g>
		<path d="M221.5,123c3.9,0,7.1-3.2,7.1-7.1c0-3.9-3.2-7.1-7.1-7.1h-20.8V87.9h20.8c3.9,0,7.1-3.2,7.1-7.1c0-3.9-3.2-7.1-7.1-7.1
			h-27.8c-3.9,0-7.1,3.2-7.1,7.1v70.5c0.1,3.9,3.2,7.1,7.1,7.1h27.8c3.9,0,7.1-3.2,7.1-7.1s-3.2-7.1-7.1-7.1h-20.8V123H221.5z"/>
	</g>
</g>
<g>
	<g>
		<path d="M149.4,73.7c-3.9,0-7.1,3.2-7.1,7.1v45L113,77.2c-1.6-2.7-4.9-4-7.9-3.2c-3.1,0.8-5.2,3.6-5.2,6.8v70.5
			c0,3.9,3.2,7.1,7.1,7.1s7.1-3.2,7.1-7.1v-45l29.2,48.7c1.3,2.2,3.6,3.4,6.1,3.4c0.6,0,1.3-0.1,1.9-0.3c3.1-0.8,5.2-3.6,5.2-6.8
			V80.8C156.5,76.9,153.3,73.7,149.4,73.7z"/>
	</g>
</g>
<g>
	<g>
		<path d="M335.1,74.1c-3.8-1-7.6,1.2-8.6,5l-12.1,45c0,0-12.3-45.4-12.4-45.6c-0.8-2.1-2.4-3.8-4.7-4.4c-3.8-1-7.6,1.2-8.6,5
			l-12.1,45l-12-45c-1-3.8-4.9-6-8.6-5c-3.8,1-6,4.9-5,8.6l18.9,70.5c0.8,3.1,3.6,5.2,6.8,5.2s6-2.1,6.8-5.2l12-45l12.1,45
			c0.8,3.1,3.6,5.2,6.8,5.2c3.2,0,6-2.1,6.8-5.2l18.9-70.5C341.1,78.9,338.9,75.1,335.1,74.1z"/>
	</g>
</g>
<g>
</g>
<g>
</g>
<g>
</g>
<g>
</g>
<g>
</g>
<g>
</g>
<g>
</g>
<g>
</g>
<g>
</g>
<g>
</g>
<g>
</g>
<g>
</g>
<g>
</g>
<g>
</g>
<g>
</g>
</svg>
