<svg width="20" height="22" viewBox="0 0 20 22" fill="none" xmlns="http://www.w3.org/2000/svg">
<path fill-rule="evenodd" clip-rule="evenodd" d="M10 1L1 8V19C1 19.5304 1.21071 20.0391 1.58579 20.4142C1.96086 20.7893 2.46957 21 3 21H7V11H13V21H17C17.5304 21 18.0391 20.7893 18.4142 20.4142C18.7893 20.0391 19 19.5304 19 19V8L10 1Z" fill="#BDBDBD"/>
<path d="M1 8L0.539545 7.40799C0.356855 7.55008 0.25 7.76856 0.25 8H1ZM10 1L10.4605 0.407986C10.1896 0.197338 9.81038 0.197338 9.53954 0.407986L10 1ZM1.58579 20.4142L2.11612 19.8839L1.58579 20.4142ZM7 21V21.75C7.41421 21.75 7.75 21.4142 7.75 21H7ZM7 11V10.25C6.58579 10.25 6.25 10.5858 6.25 11H7ZM13 11H13.75C13.75 10.5858 13.4142 10.25 13 10.25V11ZM13 21H12.25C12.25 21.4142 12.5858 21.75 13 21.75V21ZM19 8H19.75C19.75 7.76856 19.6431 7.55008 19.4605 7.40799L19 8ZM1.46046 8.59201L10.4605 1.59201L9.53954 0.407986L0.539545 7.40799L1.46046 8.59201ZM1.75 19V8H0.25V19H1.75ZM2.11612 19.8839C1.8817 19.6495 1.75 19.3315 1.75 19H0.25C0.25 19.7293 0.539731 20.4288 1.05546 20.9445L2.11612 19.8839ZM3 20.25C2.66848 20.25 2.35054 20.1183 2.11612 19.8839L1.05546 20.9445C1.57118 21.4603 2.27065 21.75 3 21.75V20.25ZM7 20.25H3V21.75H7V20.25ZM7.75 21V11H6.25V21H7.75ZM7 11.75H13V10.25H7V11.75ZM12.25 11V21H13.75V11H12.25ZM17 20.25H13V21.75H17V20.25ZM17.8839 19.8839C17.6495 20.1183 17.3315 20.25 17 20.25V21.75C17.7293 21.75 18.4288 21.4603 18.9445 20.9445L17.8839 19.8839ZM18.25 19C18.25 19.3315 18.1183 19.6495 17.8839 19.8839L18.9445 20.9445C19.4603 20.4288 19.75 19.7293 19.75 19H18.25ZM18.25 8V19H19.75V8H18.25ZM9.53954 1.59201L18.5395 8.59201L19.4605 7.40799L10.4605 0.407986L9.53954 1.59201Z" fill="#BDBDBD"/>
</svg>
