<svg width="24" height="24" viewBox="0 0 24 24" fill="none" xmlns="http://www.w3.org/2000/svg">
<path fill-rule="evenodd" clip-rule="evenodd" d="M13.8993 3.72301C13.4511 1.42566 10.1642 1.42566 9.71605 3.72301C9.44332 5.12097 7.90236 5.86307 6.63934 5.20467C4.56376 4.12271 2.51442 6.6925 4.03112 8.47528C4.95405 9.56012 4.57346 11.2276 3.27124 11.8046C1.13122 12.7527 1.86262 15.9572 4.2021 15.8829C5.6257 15.8377 6.69208 17.1749 6.33125 18.5528C5.73827 20.8171 8.69965 22.2432 10.1002 20.3678C10.9525 19.2267 12.6629 19.2267 13.5151 20.3678C14.9157 22.2432 17.8771 20.8171 17.2841 18.5528C16.9233 17.1749 17.9897 15.8377 19.4133 15.8829C21.7527 15.9572 22.4841 12.7527 20.3441 11.8046C19.0419 11.2276 18.6613 9.56012 19.5842 8.47528C21.1009 6.6925 19.0516 4.12271 16.976 5.20467C15.713 5.86307 14.172 5.12098 13.8993 3.72301ZM11.8077 15.0016C13.4645 15.0016 14.8077 13.6584 14.8077 12.0016C14.8077 10.3447 13.4645 9.00157 11.8077 9.00157C10.1508 9.00157 8.80768 10.3447 8.80768 12.0016C8.80768 13.6584 10.1508 15.0016 11.8077 15.0016Z" fill="#BDBDBD"/>
</svg>
