<svg xmlns="http://www.w3.org/2000/svg" width="24" height="24.01" viewBox="0 0 24 24.01">
  <g id="Icon_ionic-md-bookmarks" data-name="Icon ionic-md-bookmarks" transform="translate(-4.5 -4.5)">
    <path id="Path_11528" data-name="Path 11528" d="M28.491,4.5H27.014a2.514,2.514,0,0,1,1.6,2.669V25.841c0,1.381-.492,2.332-1.6,2.669h1.477A2.855,2.855,0,0,0,31.5,25.841V7.169A2.855,2.855,0,0,0,28.491,4.5Z" transform="translate(-3 0)" fill="#e1c5c5"/>
    <path id="Path_11529" data-name="Path 11529" d="M21.655,4.513c-.085-.006-.171-.013-.256-.013H7.1A2.643,2.643,0,0,0,4.5,7.169V25.841A2.643,2.643,0,0,0,7.1,28.51H21.4c.085,0,.171-.006.256-.013a2.653,2.653,0,0,0,2.346-2.657V7.169A2.663,2.663,0,0,0,21.655,4.513ZM13.275,16.5l-3.413-2-3.413,2V6.5h6.825Z" transform="translate(0 0)" fill="#e1c5c5"/>
  </g>
</svg>
