<svg xmlns="http://www.w3.org/2000/svg" width="33.274" height="24.336" viewBox="0 0 33.274 24.336">
  <path id="Icon_material-devices-other" data-name="Icon material-devices-other" d="M4.479,8.979H31.295V6H4.479A2.988,2.988,0,0,0,1.5,8.979V26.856a2.988,2.988,0,0,0,2.979,2.979h5.959V26.856H4.479Zm14.9,8.938H13.418V20.57a4.416,4.416,0,0,0,0,6.614v2.652h5.959V27.184a4.416,4.416,0,0,0,0-6.614ZM16.4,26.111a2.235,2.235,0,1,1,2.235-2.235A2.232,2.232,0,0,1,16.4,26.111ZM32.785,11.959H23.846a1.6,1.6,0,0,0-1.49,1.49v14.9a1.6,1.6,0,0,0,1.49,1.49h8.938a1.6,1.6,0,0,0,1.49-1.49v-14.9A1.6,1.6,0,0,0,32.785,11.959Zm-1.49,14.9H25.336V14.938h5.959Z" transform="translate(-1.25 -5.75)" fill="#e0e0d1" stroke="#57c9ef" stroke-width="0.5"/>
</svg>
